<svg xmlns="http://www.w3.org/2000/svg" xmlns:xlink="http://www.w3.org/1999/xlink" width="430pt" height="294pt" viewBox="0.00 0.00 430.00 294.00">
<g id="graph0" class="graph" transform="scale(1 1) rotate(0) translate(4 289.6)">
<title>G</title>
<polygon fill="white" stroke="none" points="-4,4 -4,-289.6 426.25,-289.6 426.25,4 -4,4"/>
<!-- ENSRegistry -->
<g id="node1" class="node">
<title>ENSRegistry</title>
<polygon fill="#5a189a" stroke="black" points="246.54,-285.6 153.16,-285.6 153.16,-249.6 246.54,-249.6 246.54,-285.6"/>
<text xml:space="preserve" text-anchor="middle" x="199.85" y="-263.4" font-family="Times,serif" font-size="14.00" fill="white">ENS Registry</text>
</g>
<!-- BaseDomain -->
<g id="node2" class="node">
<title>BaseDomain</title>
<polygon fill="#2d6a4f" stroke="black" points="179.7,-213.6 0,-213.6 0,-155.2 179.7,-155.2 179.7,-213.6"/>
<text xml:space="preserve" text-anchor="middle" x="89.85" y="-197" font-family="Times,serif" font-size="14.00" fill="white">cid.eth</text>
<text xml:space="preserve" text-anchor="middle" x="89.85" y="-180.2" font-family="Times,serif" font-size="14.00" fill="white"> Base Domain</text>
<text xml:space="preserve" text-anchor="middle" x="89.85" y="-163.4" font-family="Times,serif" font-size="14.00" fill="white"> Resolver: ChainResolver.sol</text>
</g>
<!-- ENSRegistry&#45;&gt;BaseDomain -->
<g id="edge1" class="edge">
<title>ENSRegistry-&gt;BaseDomain</title>
<path fill="none" stroke="black" d="M176.25,-249.18C164.97,-240.85 151.03,-230.56 137.67,-220.7"/>
<polygon fill="black" stroke="black" points="139.89,-217.99 129.77,-214.87 135.74,-223.62 139.89,-217.99"/>
</g>
<!-- ReverseResolver -->
<g id="node3" class="node">
<title>ReverseResolver</title>
<polygon fill="#1d3557" stroke="black" points="422.25,-213.6 197.46,-213.6 197.46,-155.2 422.25,-155.2 422.25,-213.6"/>
<text xml:space="preserve" text-anchor="middle" x="309.85" y="-197" font-family="Times,serif" font-size="14.00" fill="white">name.cid.eth</text>
<text xml:space="preserve" text-anchor="middle" x="309.85" y="-180.2" font-family="Times,serif" font-size="14.00" fill="white"> Domain</text>
<text xml:space="preserve" text-anchor="middle" x="309.85" y="-163.4" font-family="Times,serif" font-size="14.00" fill="white"> Resolver: ReverseChainResolver.sol</text>
</g>
<!-- ENSRegistry&#45;&gt;ReverseResolver -->
<g id="edge2" class="edge">
<title>ENSRegistry-&gt;ReverseResolver</title>
<path fill="none" stroke="black" d="M223.45,-249.18C234.73,-240.85 248.67,-230.56 262.03,-220.7"/>
<polygon fill="black" stroke="black" points="263.96,-223.62 269.93,-214.87 259.81,-217.99 263.96,-223.62"/>
</g>
<!-- ChainResolver -->
<g id="node4" class="node">
<title>ChainResolver</title>
<polygon fill="#5a189a" stroke="black" points="165.12,-119.2 42.58,-119.2 42.58,-77.6 165.12,-77.6 165.12,-119.2"/>
<text xml:space="preserve" text-anchor="middle" x="103.85" y="-102.6" font-family="Times,serif" font-size="14.00" fill="white">ChainResolver.sol </text>
<text xml:space="preserve" text-anchor="middle" x="103.85" y="-85.8" font-family="Times,serif" font-size="14.00" fill="white"> ExtendedResolver</text>
</g>
<!-- BaseDomain&#45;&gt;ChainResolver -->
<g id="edge3" class="edge">
<title>BaseDomain-&gt;ChainResolver</title>
<path fill="none" stroke="black" d="M94.59,-154.96C95.89,-147.16 97.31,-138.66 98.63,-130.7"/>
<polygon fill="black" stroke="black" points="102.05,-131.52 100.24,-121.08 95.14,-130.37 102.05,-131.52"/>
</g>
<!-- ReverseChainResolver -->
<g id="node5" class="node">
<title>ReverseChainResolver</title>
<polygon fill="#5a189a" stroke="black" points="378.67,-119.2 211.03,-119.2 211.03,-77.6 378.67,-77.6 378.67,-119.2"/>
<text xml:space="preserve" text-anchor="middle" x="294.85" y="-102.6" font-family="Times,serif" font-size="14.00" fill="white">ReverseChainResolver.sol </text>
<text xml:space="preserve" text-anchor="middle" x="294.85" y="-85.8" font-family="Times,serif" font-size="14.00" fill="white"> Extended Resolver</text>
</g>
<!-- ReverseResolver&#45;&gt;ReverseChainResolver -->
<g id="edge4" class="edge">
<title>ReverseResolver-&gt;ReverseChainResolver</title>
<path fill="none" stroke="black" d="M304.77,-154.96C303.38,-147.16 301.86,-138.66 300.44,-130.7"/>
<polygon fill="black" stroke="black" points="303.92,-130.31 298.72,-121.08 297.03,-131.54 303.92,-130.31"/>
</g>
<!-- ChainIDRegistry -->
<g id="node6" class="node">
<title>ChainIDRegistry</title>
<polygon fill="#9d4edd" stroke="black" points="258.17,-41.6 139.53,-41.6 139.53,0 258.17,0 258.17,-41.6"/>
<text xml:space="preserve" text-anchor="middle" x="198.85" y="-25" font-family="Times,serif" font-size="14.00" fill="white">chainIDRegistry</text>
<text xml:space="preserve" text-anchor="middle" x="198.85" y="-8.2" font-family="Times,serif" font-size="14.00" fill="white">Chain ID ⇄ Name</text>
</g>
<!-- ChainResolver&#45;&gt;ChainIDRegistry -->
<g id="edge5" class="edge">
<title>ChainResolver-&gt;ChainIDRegistry</title>
<path fill="none" stroke="black" d="M129.31,-77.14C140.26,-68.43 153.21,-58.12 164.96,-48.77"/>
<polygon fill="black" stroke="black" points="166.82,-51.76 172.47,-42.8 162.46,-46.28 166.82,-51.76"/>
</g>
<!-- ReverseChainResolver&#45;&gt;ChainIDRegistry -->
<g id="edge6" class="edge">
<title>ReverseChainResolver-&gt;ChainIDRegistry</title>
<path fill="none" stroke="black" d="M269.12,-77.14C258.06,-68.43 244.97,-58.12 233.1,-48.77"/>
<polygon fill="black" stroke="black" points="235.53,-46.23 225.5,-42.79 231.19,-51.73 235.53,-46.23"/>
</g>
</g>
</svg>