<svg xmlns="http://www.w3.org/2000/svg" xmlns:xlink="http://www.w3.org/1999/xlink" width="233pt" height="521pt" viewBox="0.00 0.00 233.00 521.00">
<g id="graph0" class="graph" transform="scale(1 1) rotate(0) translate(4 516.8)">
<title>ENS_ChainName_Reverse</title>
<polygon fill="white" stroke="none" points="-4,4 -4,-516.8 228.53,-516.8 228.53,4 -4,4"/>
<!-- ClientQuery -->
<g id="node1" class="node">
<title>ClientQuery</title>
<polygon fill="#1f77b4" stroke="black" points="200.37,-512.8 24.16,-512.8 24.16,-454.4 200.37,-454.4 200.37,-512.8"/>
<text xml:space="preserve" text-anchor="middle" x="112.27" y="-496.2" font-family="Helvetica,sans-Serif" font-size="14.00" fill="white">Client Query:</text>
<text xml:space="preserve" text-anchor="middle" x="112.27" y="-479.4" font-family="Helvetica,sans-Serif" font-size="14.00" fill="white">reverse.name.cid.eth</text>
<text xml:space="preserve" text-anchor="middle" x="112.27" y="-462.6" font-family="Helvetica,sans-Serif" font-size="14.00" fill="white">text('chain-name:0xa4b1')</text>
</g>
<!-- ENSRegistry -->
<g id="node2" class="node">
<title>ENSRegistry</title>
<polygon fill="#1f77b4" stroke="black" points="162.28,-418.4 62.25,-418.4 62.25,-382.4 162.28,-382.4 162.28,-418.4"/>
<text xml:space="preserve" text-anchor="middle" x="112.27" y="-396.2" font-family="Helvetica,sans-Serif" font-size="14.00" fill="white">ENS Registry</text>
</g>
<!-- ClientQuery&#45;&gt;ENSRegistry -->
<g id="edge1" class="edge">
<title>ClientQuery-&gt;ENSRegistry</title>
<path fill="none" stroke="black" d="M112.27,-454.2C112.27,-446.3 112.27,-437.73 112.27,-429.83"/>
<polygon fill="black" stroke="black" points="115.77,-430.05 112.27,-420.05 108.77,-430.05 115.77,-430.05"/>
</g>
<!-- ENSIP10 -->
<g id="node3" class="node">
<title>ENSIP10</title>
<polygon fill="#9467bd" stroke="black" points="224.53,-346.4 0,-346.4 0,-304.8 224.53,-304.8 224.53,-346.4"/>
<text xml:space="preserve" text-anchor="middle" x="112.27" y="-329.8" font-family="Helvetica,sans-Serif" font-size="14.00" fill="white">ENSIP-10:</text>
<text xml:space="preserve" text-anchor="middle" x="112.27" y="-313" font-family="Helvetica,sans-Serif" font-size="14.00" fill="white">Inherit resolver from name.cid.eth</text>
</g>
<!-- ENSRegistry&#45;&gt;ENSIP10 -->
<g id="edge2" class="edge">
<title>ENSRegistry-&gt;ENSIP10</title>
<path fill="none" stroke="black" d="M112.27,-382.15C112.27,-374.95 112.27,-366.35 112.27,-358.09"/>
<polygon fill="black" stroke="black" points="115.77,-358.34 112.27,-348.34 108.77,-358.34 115.77,-358.34"/>
</g>
<!-- ReverseChainResolver -->
<g id="node4" class="node">
<title>ReverseChainResolver</title>
<polygon fill="#2ca02c" stroke="black" points="203.13,-268.8 21.4,-268.8 21.4,-232.8 203.13,-232.8 203.13,-268.8"/>
<text xml:space="preserve" text-anchor="middle" x="112.27" y="-246.6" font-family="Helvetica,sans-Serif" font-size="14.00" fill="white">ReverseChainResolver.sol</text>
</g>
<!-- ENSIP10&#45;&gt;ReverseChainResolver -->
<g id="edge3" class="edge">
<title>ENSIP10-&gt;ReverseChainResolver</title>
<path fill="none" stroke="black" d="M112.27,-304.32C112.27,-296.95 112.27,-288.46 112.27,-280.5"/>
<polygon fill="black" stroke="black" points="115.77,-280.53 112.27,-270.53 108.77,-280.53 115.77,-280.53"/>
</g>
<!-- ExtractChain -->
<g id="node5" class="node">
<title>ExtractChain</title>
<polygon fill="#2ca02c" stroke="black" points="213.21,-196.8 11.32,-196.8 11.32,-155.2 213.21,-155.2 213.21,-196.8"/>
<text xml:space="preserve" text-anchor="middle" x="112.27" y="-180.2" font-family="Helvetica,sans-Serif" font-size="14.00" fill="white">Extract chain ID</text>
<text xml:space="preserve" text-anchor="middle" x="112.27" y="-163.4" font-family="Helvetica,sans-Serif" font-size="14.00" fill="white">from key 'chain-name:0xa4b1'</text>
</g>
<!-- ReverseChainResolver&#45;&gt;ExtractChain -->
<g id="edge4" class="edge">
<title>ReverseChainResolver-&gt;ExtractChain</title>
<path fill="none" stroke="black" d="M112.27,-232.55C112.27,-225.35 112.27,-216.75 112.27,-208.49"/>
<polygon fill="black" stroke="black" points="115.77,-208.74 112.27,-198.74 108.77,-208.74 115.77,-208.74"/>
</g>
<!-- QueryRegistry -->
<g id="node6" class="node">
<title>QueryRegistry</title>
<polygon fill="#ff7f0e" stroke="black" points="200.41,-119.2 24.12,-119.2 24.12,-77.6 200.41,-77.6 200.41,-119.2"/>
<text xml:space="preserve" text-anchor="middle" x="112.27" y="-102.6" font-family="Helvetica,sans-Serif" font-size="14.00" fill="white">Query chainIDRegistry</text>
<text xml:space="preserve" text-anchor="middle" x="112.27" y="-85.8" font-family="Helvetica,sans-Serif" font-size="14.00" fill="white">chainName(chainIdBytes)</text>
</g>
<!-- ExtractChain&#45;&gt;QueryRegistry -->
<g id="edge5" class="edge">
<title>ExtractChain-&gt;QueryRegistry</title>
<path fill="none" stroke="black" d="M112.27,-154.74C112.27,-147.39 112.27,-138.91 112.27,-130.83"/>
<polygon fill="black" stroke="black" points="115.77,-130.97 112.27,-120.97 108.77,-130.97 115.77,-130.97"/>
</g>
<!-- ReturnName -->
<g id="node7" class="node">
<title>ReturnName</title>
<polygon fill="#2ca02c" stroke="black" points="179.41,-41.6 45.12,-41.6 45.12,0 179.41,0 179.41,-41.6"/>
<text xml:space="preserve" text-anchor="middle" x="112.27" y="-25" font-family="Helvetica,sans-Serif" font-size="14.00" fill="white">Return chain name</text>
<text xml:space="preserve" text-anchor="middle" x="112.27" y="-8.2" font-family="Helvetica,sans-Serif" font-size="14.00" fill="white">'arbitrum1' to client</text>
</g>
<!-- QueryRegistry&#45;&gt;ReturnName -->
<g id="edge6" class="edge">
<title>QueryRegistry-&gt;ReturnName</title>
<path fill="none" stroke="black" d="M112.27,-77.14C112.27,-69.79 112.27,-61.31 112.27,-53.23"/>
<polygon fill="black" stroke="black" points="115.77,-53.37 112.27,-43.37 108.77,-53.37 115.77,-53.37"/>
</g>
</g>
</svg>